<svg xmlns="http://www.w3.org/2000/svg" fill="none" viewBox="0 0 24 24" id="Upstash--Streamline-Svg-Logos" height="24" width="24">
  <desc>
    Upstash Streamline Icon: https://streamlinehq.com
  </desc>
  <path fill="#00c98d" d="M0.25 14.633125c1.1634425 1.163425 3.04975 1.163425 4.2132 0 1.163425 -1.16345 1.163425 -3.04975 0 -4.2132l-0.526675 0.52665c0.8726 0.872575 0.8726 2.2873 0 3.159875 -0.87255 0.8726 -2.287295 0.8726 -3.15988 0L0.25 14.633125Z" stroke-width="0.25"></path>
  <path fill="#00c98d" d="M1.3032225 13.579725c0.5817175 0.581725 1.5248525 0.581725 2.1066025 0 0.5817 -0.5817 0.5817 -1.524875 0 -2.106575l-0.52665 0.52665c0.29085 0.29085 0.29085 0.762425 0 1.0533 -0.290875 0.29085 -0.76245 0.29085 -1.053305 0l-0.5266475 0.526625Z" stroke-width="0.25"></path>
  <path fill="#00c98d" d="M5.516425 9.366725c-1.163425 -1.16345 -3.049745 -1.16345 -4.21318 0 -1.1634415 1.163425 -1.1634415 3.04975 0 4.213175l0.5266375 -0.526625c-0.8725625 -0.8726 -0.8725625 -2.287325 0 -3.1599 0.8725925 -0.872575 2.2873175 -0.872575 3.1598925 0l0.52665 -0.52665Z" stroke-width="0.25"></path>
  <path fill="#00c98d" d="M4.463075 10.419925c-0.581725 -0.5817 -1.5249 -0.5817 -2.1066125 0 -0.5817275 0.581725 -0.5817275 1.524875 0 2.1066l0.5266375 -0.52665c-0.29085 -0.29085 -0.29085 -0.762425 0 -1.0533 0.290875 -0.29085 0.762425 -0.29085 1.0533 0l0.526675 -0.52665Z" stroke-width="0.25"></path>
  <path fill="#ffffff" fill-opacity=".4" d="M5.516425 9.366725c-1.163425 -1.16345 -3.049745 -1.16345 -4.21318 0 -1.1634415 1.163425 -1.1634415 3.04975 0 4.213175l0.5266375 -0.526625c-0.8725625 -0.8726 -0.8725625 -2.287325 0 -3.1599 0.8725925 -0.872575 2.2873175 -0.872575 3.1598925 0l0.52665 -0.52665Z" stroke-width="0.25"></path>
  <path fill="#ffffff" fill-opacity=".4" d="M4.463075 10.419925c-0.581725 -0.5817 -1.5249 -0.5817 -2.1066125 0 -0.5817275 0.581725 -0.5817275 1.524875 0 2.1066l0.5266375 -0.52665c-0.29085 -0.29085 -0.29085 -0.762425 0 -1.0533 0.290875 -0.29085 0.762425 -0.29085 1.0533 0l0.526675 -0.52665Z" stroke-width="0.25"></path>
  <path fill="#050505" d="M9.004025 12.41675c0 0.37135 -0.265 0.555425 -0.5189 0.555425 -0.276125 0 -0.4602 -0.1952 -0.4602 -0.50465v-1.463125h-0.574475v1.552c0 0.585575 0.33325 0.91725 0.8125 0.91725 0.365 0 0.622075 -0.192025 0.73315 -0.464975h0.0254v0.433225h0.557v-2.4375h-0.574475v1.41235Zm1.075825 1.939225h0.574475v-1.2981h0.0238c0.09045 0.17775 0.2793 0.426875 0.69825 0.426875 0.574475 0 1.0045 -0.45545 1.0045 -1.258425 0 -0.8125 -0.44275 -1.253675 -1.0061 -1.253675 -0.43005 0 -0.609375 0.258675 -0.69665 0.434825h-0.033325v-0.403075h-0.56495v3.351575Zm0.56335 -2.132825c0 -0.4729 0.20315 -0.779175 0.572875 -0.779175 0.382475 0 0.57925 0.325325 0.57925 0.779175 0 0.45705 -0.19995 0.7903 -0.57925 0.7903 -0.36655 0 -0.572875 -0.3174 -0.572875 -0.7903Zm4.066775 -0.574475c-0.07935 -0.412575 -0.409425 -0.676025 -0.980725 -0.676025 -0.58715 0 -0.98705 0.288825 -0.98545 0.739525 -0.0016 0.35545 0.2174 0.590325 0.685525 0.687125l0.415775 0.087275c0.22375 0.0492 0.3285 0.13965 0.3285 0.277725 0 0.166625 -0.1809 0.291975 -0.45385 0.291975 -0.26345 0 -0.434825 -0.11425 -0.484025 -0.33325l-0.560175 0.05395c0.071425 0.447525 0.4475 0.71255 1.045775 0.71255 0.609375 0 1.039425 -0.3158 1.041025 -0.7776 -0.0016 -0.34755 -0.22535 -0.560175 -0.68555 -0.66015l-0.415775 -0.088875c-0.24755 -0.055525 -0.34595 -0.141225 -0.344375 -0.282475 -0.001575 -0.165025 0.180925 -0.2793 0.42055 -0.2793 0.265 0 0.40465 0.144425 0.4491 0.3047l0.523675 -0.05715Zm1.653775 -0.644275h-0.480675v-0.584h-0.57455v0.584h-0.34595v0.444325h0.34595v1.355225c-0.003125 0.45865 0.3301 0.683975 0.761775 0.671275 0.163425 -0.00475 0.276025 -0.0365 0.338 -0.057125l-0.096825 -0.4491c-0.031725 0.00795 -0.096825 0.022225 -0.168175 0.022225 -0.1445 0 -0.260225 -0.0508 -0.260225 -0.282475v-1.260025h0.480675v-0.444325Zm1.092625 2.4867c0.382375 0 0.610875 -0.179325 0.7156 -0.38405h0.01905v0.33485h0.55235v-1.63135c0 -0.644275 -0.525375 -0.8379 -0.990275 -0.8379 -0.512575 0 -0.906125 0.228525 -1.033175 0.67285l0.5364 0.076175c0.0572 -0.166625 0.21895 -0.309425 0.4999 -0.309425 0.266625 0 0.412625 0.136475 0.412625 0.376075v0.00955c0 0.165025 -0.17295 0.17295 -0.603 0.218975 -0.47295 0.050775 -0.925175 0.192025 -0.925175 0.7411 0 0.47925 0.35065 0.73315 0.8157 0.73315Zm0.1491 -0.422125c-0.239675 0 -0.410975 -0.109475 -0.410975 -0.32055 0 -0.2206 0.192 -0.312625 0.4491 -0.349125 0.15075 -0.020625 0.45225 -0.058725 0.526875 -0.119025v0.28725c0 0.27135 -0.219125 0.50145 -0.565 0.50145Zm3.552675 -1.4203c-0.0794 -0.412575 -0.4095 -0.676025 -0.98075 -0.676025 -0.5872 0 -0.98715 0.288825 -0.985525 0.739525 -0.001625 0.35545 0.2175 0.590325 0.685525 0.687125l0.4159 0.087275c0.223725 0.0492 0.32845 0.13965 0.32845 0.277725 0 0.166625 -0.181 0.291975 -0.453875 0.291975 -0.263525 0 -0.434825 -0.11425 -0.483975 -0.33325l-0.560225 0.05395c0.07135 0.447525 0.44745 0.71255 1.045825 0.71255 0.60925 0 1.03945 -0.3158 1.040925 -0.7776 -0.001475 -0.34755 -0.225375 -0.560175 -0.6855 -0.66015l-0.41575 -0.088875c-0.247575 -0.055525 -0.346025 -0.141225 -0.3444 -0.282475 -0.001625 -0.165025 0.18085 -0.2793 0.420525 -0.2793 0.265 0 0.404725 0.144425 0.4491 0.3047l0.52375 -0.05715Zm1.011125 0.365c0 -0.3523 0.218975 -0.555425 0.526875 -0.555425 0.301475 0 0.4792 0.192025 0.4792 0.520525v1.463125h0.574525v-1.552c0 -0.58875 -0.333375 -0.91725 -0.839525 -0.91725 -0.3745 0 -0.612525 0.1698 -0.725275 0.445925h-0.02845v-1.226675H21.59475v3.25h0.574525v-1.428225Z" stroke-width="0.25"></path>
</svg>